<svg width="123" height="186" viewBox="0 0 123 186" fill="none" xmlns="http://www.w3.org/2000/svg">
<path d="M56.5622 154.252C53.7719 148.47 52.3105 142.362 51.1628 136.199C47.8505 118.411 46.8168 100.444 47.4613 82.3827C47.6939 75.8612 48.2517 69.3496 48.7533 62.8407C48.8821 61.1695 49.3307 59.5187 49.6974 57.873C49.8134 57.353 50.141 56.8803 50.3906 56.3455C51.5296 56.867 51.5414 57.8611 51.864 58.6959C52.1624 59.4679 52.5941 60.1881 52.9671 60.9311C53.1508 60.8971 53.3345 60.8632 53.5182 60.8292C53.6787 60.1286 53.8987 59.4357 53.9907 58.7262C54.9023 51.6973 55.745 44.659 56.7218 37.6394C56.9742 35.8257 57.481 34.0115 58.1355 32.2991C58.9827 30.0823 60.5039 29.8443 62.0588 31.6174C62.6697 32.3139 63.1343 33.2283 63.4006 34.1227C64.3453 37.2954 64.3155 40.5657 64.1218 43.8349C64.097 44.254 63.9484 44.6658 63.5612 45.0779C63.4473 44.0384 63.3777 42.9915 63.2057 41.9617C63.0612 41.096 62.8963 40.2066 62.5473 39.4129C62.3545 38.9747 61.7385 38.4123 61.3603 38.4455C60.8866 38.4869 60.1946 39.0042 60.064 39.4526C59.6398 40.9092 59.2391 42.419 59.1673 43.9245C58.7853 51.9357 58.4769 59.9509 58.2194 67.9672C58.1746 69.3604 58.4794 70.7674 58.6531 72.1642C58.7482 72.9286 59.1632 73.485 59.9833 73.457C60.8152 73.4286 61.6689 73.1807 61.7626 72.1878C61.9248 70.4676 62.0088 68.7363 62.041 67.0081C62.1282 62.3332 62.1123 57.6556 62.2575 52.9829C62.3237 50.8552 63.0478 50.0149 64.5131 49.7465C66.6416 49.3565 68.3981 50.05 69.2093 51.804C69.779 53.036 70.1407 54.3696 70.5407 55.6747C73.2155 64.4031 75.9083 73.1263 78.5298 81.8709C80.5151 88.4936 82.4034 95.1455 84.2984 101.659C86.2205 102.137 86.2544 102.147 86.7459 100.508C87.8539 96.8116 88.9241 93.1044 90.0113 89.4022C92.729 80.1482 95.4428 70.8932 98.1683 61.6415C99.0654 58.5963 99.9911 55.5594 100.909 52.5203C101.431 50.7902 102.633 49.7561 104.412 49.7478C109.926 49.7221 115.441 49.7504 120.955 49.793C122.208 49.8027 122.906 50.5373 122.687 51.8748C122.397 53.65 121.921 55.4084 121.373 57.1253C118.536 66.0096 115.629 74.8712 112.789 83.7545C109.532 93.9425 106.331 104.148 103.084 114.339C101.449 119.471 99.8172 124.605 98.0743 129.701C97.4856 131.422 96.0916 132.513 94.2288 132.532C88.9952 132.583 83.7585 132.596 78.5268 132.47C75.9365 132.408 74.8406 131.216 73.9998 128.481C71.6135 120.719 69.1652 112.977 66.7765 105.216C65.31 100.451 63.9184 95.663 62.4634 90.8946C62.2911 90.3301 62.0587 89.648 61.627 89.3307C60.9662 88.845 60.0331 88.2713 59.3568 88.4127C58.8194 88.525 58.1316 89.6533 58.1335 90.3287C58.1444 94.1916 58.0595 98.0895 58.5402 101.908C59.3083 108.01 60.4946 114.059 61.502 120.131C61.5539 120.444 61.5866 120.759 61.6575 121.295C60.4335 120.475 59.8068 119.38 59.4233 118.25C58.3522 115.093 57.4129 111.89 56.4497 108.697C56.0901 107.505 55.8416 106.28 55.4697 105.092C55.365 104.758 55.0022 104.505 54.7578 104.215C54.4515 104.502 53.9345 104.752 53.8755 105.084C53.6155 106.545 53.3177 108.033 53.3426 109.506C53.4292 114.626 53.4423 119.76 53.8636 124.857C54.3506 130.751 54.9232 136.672 56.0506 142.466C57.0292 147.495 58.8333 152.363 60.2733 157.302C60.5254 158.167 60.781 159.03 60.8461 159.993C58.8802 158.493 57.769 156.392 56.5622 154.252Z" fill="white"/>
<path d="M16.0433 59.9418C16.3015 65.8627 16.9376 71.6158 18.291 77.2697C18.5038 78.1587 18.8741 79.0455 19.351 79.8228C19.6725 80.347 20.3094 80.677 20.8053 81.0939C21.195 80.6184 21.7826 80.2001 21.9385 79.6573C22.4808 77.7689 23.0298 75.8588 23.2957 73.9184C24.4053 65.821 25.2761 57.6886 26.5046 49.6102C27.3554 44.0152 28.5246 38.4595 29.7827 32.9391C30.7448 28.7178 32.0654 24.5783 33.2394 20.4061C33.3317 20.0781 33.5255 19.7788 33.6721 19.4662C33.8201 19.4656 33.968 19.465 34.116 19.4644C34.1969 20.2403 34.4249 21.0342 34.3321 21.7886C34.0082 24.4233 33.5428 27.0402 33.1864 29.6714C32.0523 38.0456 30.8734 46.4147 29.8414 54.8018C28.447 66.1345 27.844 77.5277 27.7908 88.9396C27.7404 99.7478 28.1022 110.552 29.1954 121.311C29.6872 126.15 30.4133 130.972 31.1981 135.774C32.0793 141.166 33.1551 146.526 34.1277 151.903C34.3683 153.234 34.5368 154.577 34.7472 155.972C34.0975 156.165 33.4702 156.232 33.2394 155.277C32.2411 151.143 31.0532 147.046 30.2733 142.872C28.2126 131.844 26.3468 120.778 24.3525 109.737C24.0624 108.131 23.5911 106.539 23.0182 105.01C22.627 103.966 22.0833 103.935 21.531 104.917C21.0785 105.722 20.7496 106.703 20.7164 107.618C20.6039 110.718 20.6638 113.824 20.6227 116.927C20.6057 118.215 20.5476 119.507 20.4105 120.786C20.3563 121.292 20.0359 121.769 19.7626 122.442C18.1991 120.962 17.7367 119.235 17.3697 117.535C16.616 114.041 15.9099 110.533 15.3493 107.004C13.7985 97.2429 12.7085 87.4372 12.87 77.5285C12.9784 70.8768 12.9667 64.2205 13.2319 57.5752C13.3598 54.3715 13.9836 51.1857 14.4302 47.9985C14.5084 47.4399 14.8213 46.9143 15.0259 46.3735C15.1696 46.3728 15.3134 46.3722 15.4571 46.3716C15.5737 47.065 15.7733 47.756 15.793 48.4522C15.8998 52.2412 15.9622 56.0316 16.0433 59.9418Z" fill="white"/>
<path d="M65.4016 180.782C64.7823 181.871 64.3201 182.98 63.5824 183.856C61.616 186.19 58.6484 186.151 56.9287 183.643C55.7357 181.903 54.8181 179.94 53.9946 177.985C51.2353 171.435 49.3801 164.604 48.0117 157.64C46.3685 149.277 44.7656 140.906 43.1405 132.539C42.9951 131.79 42.817 131.048 42.6501 130.303C42.4962 129.616 42.2058 129.071 41.3666 129.185C40.5331 129.298 40.0278 129.802 40.0286 130.631C40.0301 132.04 40.1403 133.45 40.1772 134.86C40.1983 135.666 40.2377 136.508 39.0331 136.951C38.6194 136.08 38.1512 135.22 37.7925 134.316C35.9213 129.602 35.15 124.628 34.4698 119.646C33.2605 110.789 33.167 101.885 33.4935 92.9688C33.5183 92.2894 33.6156 91.6004 33.782 90.9419C33.9587 90.2421 34.4311 89.8552 35.3424 90.0502C35.6088 92.3793 35.8046 94.7402 36.1802 97.0721C36.3417 98.0743 36.8177 99.0452 37.2743 99.9691C37.4285 100.281 38.0352 100.642 38.3073 100.559C38.7341 100.429 39.2184 100.006 39.3788 99.5907C39.6339 98.9303 39.7105 98.1775 39.7446 97.4581C40.0118 91.8193 40.2255 86.178 40.5122 80.5403C40.6143 78.5314 40.8708 76.5302 41.0625 74.5261C41.0816 74.3266 41.1211 74.1241 41.1854 73.9347C41.433 73.2051 41.4424 72.1273 42.5105 72.227C43.5539 72.3244 43.6742 73.2489 43.6463 74.1716C43.4757 79.8142 43.0776 85.4644 43.2334 91.0988C43.4414 98.6284 43.9884 106.154 44.5731 113.666C45.0136 119.327 45.6561 124.975 46.36 130.61C47.8737 142.727 50.501 154.62 54.0243 166.3C54.9943 169.516 56.4562 172.592 57.82 175.675C58.3674 176.913 59.1717 178.184 60.7703 178.219C62.4255 178.256 63.185 176.956 63.9069 175.729C65.7867 172.534 66.8163 169.02 67.5172 165.421C68.4842 160.455 69.382 155.473 70.1931 150.479C70.862 146.36 71.3617 142.214 72.0947 137.993C72.1976 138.602 72.3468 139.207 72.3961 139.82C72.9303 146.457 72.2297 153.021 71.1766 159.558C70.0093 166.806 68.0943 173.853 65.4016 180.782Z" fill="white"/>
<path d="M55.5182 11.362C53.0272 16.0161 51.5384 20.9471 50.5153 25.9843C48.8346 34.2588 47.3607 42.5765 45.8957 50.893C45.4636 53.346 45.3955 55.8614 45.0756 58.3372C44.9696 59.158 44.6854 59.9868 44.3245 60.7354C43.8811 61.655 43.0806 61.6929 42.6158 60.7836C42.3089 60.1831 42.1925 59.389 42.259 58.7078C42.7631 53.5397 43.1954 48.3586 43.9182 43.2194C44.8092 36.8853 45.794 30.5547 47.0462 24.2842C48.1957 18.5276 49.7232 12.8405 52.282 7.50649C53.4535 5.06461 54.7607 2.69958 56.947 0.979615C58.7112 -0.408274 60.9361 -0.3228 62.5057 1.24481C64.1007 2.8378 65.1783 4.72086 65.7315 6.94306C66.5443 10.2086 67.705 13.4017 68.3139 16.7004C69.3205 22.1533 70.0971 27.6543 70.7827 33.1585C71.0798 35.544 70.9172 37.9878 70.9422 40.4054C70.9453 40.7056 70.8178 41.0073 70.4739 41.3249C70.225 40.031 69.98 38.7363 69.7263 37.4433C68.3645 30.5015 67.1144 23.5348 65.5788 16.6318C65.0009 14.0341 63.8999 11.5197 62.7785 9.08697C61.7776 6.91549 59.0963 6.70684 57.526 8.53554C56.7949 9.38683 56.2072 10.3616 55.5182 11.362Z" fill="white"/>
<path d="M6.58872 76.7979C6.51977 70.6921 6.38225 64.6983 6.46494 58.7076C6.48611 57.1742 7.20341 55.6505 7.68208 53.8103C8.50382 55.5016 8.53509 83.7093 7.7813 86.058C6.76546 83.0982 6.83168 79.9834 6.58872 76.7979Z" fill="white"/>
<path d="M1.60373 67.6669C1.48657 68.0614 1.37926 68.3566 1.13744 69.0217C0.814475 68.3412 0.497324 67.9648 0.46769 67.5669C-0.00250836 61.2542 -0.443362 54.9326 0.870525 48.6662C1.08603 47.6384 1.72004 46.6986 2.16063 45.7182C2.36169 45.748 2.56275 45.7778 2.76381 45.8076C2.85189 46.3501 3.03577 46.8968 3.01221 47.4344C2.87811 50.4944 2.73498 53.5551 2.51732 56.6101C2.25686 60.2655 1.91833 63.9153 1.60373 67.6669Z" fill="white"/>
</svg>
